<svg width="34" height="34" viewBox="0 0 34 34" fill="none" xmlns="http://www.w3.org/2000/svg">
<rect width="34" height="34" rx="17" fill="#BCEB0F"/>
<path d="M13.8574 15.5518C14.0457 15.9277 14.2404 16.3207 14.4395 16.7275C14.6385 17.1344 14.8357 17.5354 15.0332 17.9268C15.2292 18.3182 15.4175 18.6962 15.5967 19.0566C15.7757 19.4168 15.9368 19.7412 16.0791 20.0303H24.3936V21.207H15.3672L13.5215 17.4775C13.0928 16.616 12.6334 15.691 12.1436 14.7012C12.0671 14.8558 11.9856 15.0232 11.8984 15.2041C11.8219 15.3587 11.7333 15.5396 11.6309 15.7451C11.5283 15.9508 11.4196 16.1736 11.3018 16.4102L9.50977 20.0303H13.1396C13.3433 20.448 13.537 20.8404 13.7207 21.207H7.63281L11.79 12.8057H12.502C12.9659 13.7447 13.418 14.6591 13.8574 15.5518ZM23.2363 17.5938H17.8008V16.418H23.2363V17.5938ZM24.3906 13.9795H18.4346C18.2707 13.9795 18.117 14.0114 17.9746 14.0732C17.8324 14.1351 17.7049 14.2199 17.5947 14.3281C17.4846 14.4363 17.3992 14.5633 17.335 14.707C17.2707 14.8508 17.2403 15.0055 17.2402 15.1709V17.5928H16.0762V15.1172L16.0781 15.1191C16.0888 14.7943 16.1562 14.4906 16.2803 14.209C16.4058 13.9275 16.5739 13.6825 16.7852 13.4736C16.9964 13.2649 17.2451 13.1015 17.5283 12.9824C17.8115 12.8634 18.1131 12.8047 18.4346 12.8047H24.3906V13.9795Z" fill="#050B13"/>
</svg>
