<svg width="133" height="21" viewBox="0 0 133 21" fill="none" xmlns="http://www.w3.org/2000/svg">
<path d="M1.56895 20.1508C1.17996 20.1508 0.852778 20.0149 0.587394 19.7468C0.32201 19.4786 0.1875 19.1481 0.1875 18.755C0.1875 18.362 0.32201 18.0498 0.587394 17.7817L15.2199 2.99742H0.1875V0.205866H18.5463C18.9352 0.205866 19.2624 0.34177 19.5278 0.609907C19.7932 0.878044 19.9277 1.20862 19.9277 1.60165C19.9277 1.99467 19.7932 2.30688 19.5278 2.57502L4.89534 17.3593H19.9277V20.1508H1.56895ZM0.1875 0.995583C0.1875 0.775197 0.26385 0.587861 0.412902 0.437264C0.565588 0.282994 0.747348 0.209542 0.965472 0.209542H2.16515C2.38328 0.209542 2.56869 0.286667 2.71774 0.437264C2.87043 0.591534 2.94312 0.775197 2.94312 0.995583V2.20771C2.94312 2.42809 2.86679 2.61543 2.71774 2.76603C2.56505 2.9203 2.38328 2.99375 2.16515 2.99375H0.965472C0.747348 2.99375 0.561953 2.91662 0.412902 2.76603C0.260215 2.61176 0.1875 2.42809 0.1875 2.20771V0.995583Z" fill="#BCEB0F"/>
<path d="M68.0058 20.1875L77.8759 0.242543H79.5664C80.6679 2.47212 81.7404 4.64292 82.7837 6.7623C83.2309 7.65487 83.6926 8.58784 84.1652 9.55386C84.6378 10.5199 85.1067 11.4712 85.5757 12.4005C86.041 13.3298 86.4882 14.2261 86.9136 15.0819C87.3389 15.9377 87.7206 16.7091 88.0587 17.3959H107.799V20.1875H86.3682L81.9876 11.3353C80.9697 9.2894 79.8791 7.09288 78.7157 4.7421C78.534 5.10941 78.3413 5.5061 78.1341 5.93585C77.9523 6.30316 77.7414 6.73292 77.4979 7.22144C77.2543 7.70996 76.9962 8.23889 76.7163 8.80088L72.4628 17.3959H81.0787C81.5622 18.3877 82.0239 19.317 82.4602 20.1875H68.0058ZM88.0551 5.73383C88.0805 4.96248 88.2405 4.24256 88.535 3.57406C88.833 2.90555 89.2329 2.3252 89.7346 1.82933C90.2363 1.33346 90.8252 0.944102 91.4978 0.661273C92.1703 0.378444 92.8865 0.238866 93.6499 0.238866H107.792V3.03043H93.6499C93.2609 3.03043 92.8974 3.10389 92.5593 3.25081C92.2212 3.39774 91.9195 3.59976 91.6577 3.85687C91.396 4.11399 91.1924 4.41519 91.0397 4.75678C90.887 5.09838 90.8143 5.46569 90.8143 5.85872V11.6071H88.0514V5.73016L88.0551 5.73383ZM92.1449 9.59059C92.1449 9.38123 92.2212 9.20125 92.3703 9.04698C92.5193 8.89271 92.7047 8.81924 92.9229 8.81924H94.1407C94.3479 8.81924 94.5261 8.89638 94.6788 9.04698C94.8315 9.20125 94.9041 9.38123 94.9041 9.59059V10.8211C94.9041 11.0415 94.8278 11.2288 94.6788 11.3794C94.5297 11.53 94.3479 11.6071 94.1407 11.6071H92.9229C92.7047 11.6071 92.5193 11.53 92.3703 11.3794C92.2176 11.2251 92.1449 11.0415 92.1449 10.8211V9.59059ZM105.051 8.81924V11.6108H92.1449V8.81924H105.051Z" fill="#BCEB0F"/>
<path d="M68.0058 3.01579C67.6059 3.01579 67.2352 3.08925 66.8862 3.23618C66.5372 3.3831 66.2391 3.58512 65.9773 3.84224C65.7156 4.09936 65.512 4.40055 65.3593 4.74215C65.2066 5.08375 65.1339 5.45106 65.1339 5.84408V20.1692H63.1889L48.1566 4.9809V20.1692H45.3937V0.224231H47.3386L62.371 15.4125V5.89918C62.371 5.12783 62.52 4.39688 62.8145 3.70267C63.1126 3.01212 63.5125 2.40973 64.0214 1.89549C64.5304 1.38126 65.1266 0.973537 65.8101 0.676016C66.4935 0.374821 67.2242 0.227908 67.9986 0.227908" fill="#BCEB0F"/>
<path d="M130.317 20.1325H128.372L109.995 0.1875H113.412L132.309 20.1765" fill="#BCEB0F"/>
<path d="M113.339 20.1692H109.995L126.936 0.1875L130.324 0.194853" fill="#BCEB0F"/>
<path d="M46.1753 20.1692C45.9571 20.1692 45.7717 20.092 45.6227 19.9414C45.47 19.7871 45.3973 19.6035 45.3973 19.3831V18.171C45.3973 17.9506 45.4736 17.7633 45.6227 17.6127C45.7754 17.4584 45.9571 17.3849 46.1753 17.3849H47.375C47.5931 17.3849 47.7785 17.4621 47.9275 17.6127C48.0802 17.7669 48.1529 17.9506 48.1529 18.171V19.3831C48.1529 19.6035 48.0766 19.7908 47.9275 19.9414C47.7748 20.0957 47.5931 20.1692 47.375 20.1692H46.1753Z" fill="#BCEB0F"/>
<path d="M22.0771 17.3813H41.8173V20.1729H22.0553V17.3371C22.0625 17.3519 22.0698 17.3666 22.0771 17.3813Z" fill="#BCEB0F"/>
<path d="M39.0689 11.5962H26.1633V8.80463H39.0689V11.5962Z" fill="#BCEB0F"/>
<path d="M41.81 3.01579H27.6683C27.2793 3.01579 26.9158 3.08925 26.5777 3.23618C26.2396 3.3831 25.9379 3.58512 25.6761 3.84224C25.4144 4.09936 25.2108 4.40055 25.0581 4.74215C24.9054 5.08375 24.8327 5.45106 24.8327 5.84408L24.84 17.3813H22.0771L22.0698 5.71552L22.0734 5.71922C22.0989 4.94787 22.2589 4.22794 22.5533 3.55944C22.8514 2.89093 23.2513 2.31058 23.753 1.81471C24.2547 1.31885 24.8436 0.929467 25.5162 0.646638C26.1887 0.363813 26.9049 0.224231 27.6683 0.224231H41.81V3.01579Z" fill="#BCEB0F"/>
<path d="M28.1591 8.80463C28.3663 8.80463 28.5445 8.88177 28.6972 9.03236C28.8498 9.18663 28.9225 9.36662 28.9225 9.57598V10.8065C28.9225 11.0268 28.8462 11.2142 28.6972 11.3648C28.5481 11.5154 28.3663 11.5925 28.1591 11.5925H26.9412C26.7231 11.5925 26.5377 11.5154 26.3887 11.3648C26.236 11.2105 26.1633 11.0268 26.1633 10.8065V9.57598C26.1633 9.36661 26.2396 9.18664 26.3887 9.03236C26.5377 8.87809 26.7231 8.80463 26.9412 8.80463H28.1591Z" fill="#BCEB0F"/>
<path d="M68.0058 3.01579C67.606 3.01579 67.2351 3.08925 66.8862 3.23618C66.5372 3.3831 66.239 3.58512 65.9773 3.84224C65.7156 4.09936 65.512 4.40055 65.3593 4.74215C65.2066 5.08375 65.1339 5.45106 65.1339 5.84408V20.1692H63.1889L48.1566 4.9809V20.1692H45.3937V0.224231H47.3386L62.371 15.4125V5.89918C62.371 5.12783 62.52 4.39688 62.8145 3.70267C63.1126 3.01212 63.5125 2.40973 64.0214 1.89549C64.5304 1.38126 65.1266 0.973537 65.8101 0.676016C66.4935 0.374821 67.2242 0.227908 67.9986 0.227908M130.317 20.1325H128.372L109.995 0.1875M109.995 0.1875L113.339 1.10578M109.995 0.1875H113.412L132.309 20.1765M113.339 20.1692H109.995L126.936 0.1875M126.936 0.1875L125.591 3.01579M126.936 0.1875L130.324 0.194853M22.0771 17.3813H41.8173V20.1729H22.0553V17.3371C22.0625 17.3519 22.0698 17.3666 22.0771 17.3813ZM22.0771 17.3813H24.84L24.8327 5.84408C24.8327 5.45106 24.9054 5.08375 25.0581 4.74215C25.2108 4.40055 25.4144 4.09936 25.6761 3.84224C25.9379 3.58512 26.2396 3.3831 26.5777 3.23618C26.9158 3.08925 27.2793 3.01579 27.6683 3.01579H41.81V0.224231H27.6683C26.9049 0.224231 26.1887 0.363813 25.5162 0.646638C24.8436 0.929467 24.2547 1.31885 23.753 1.81471C23.2513 2.31058 22.8514 2.89093 22.5533 3.55944C22.2589 4.22794 22.0989 4.94787 22.0734 5.71922L22.0698 5.71552L22.0771 17.3813ZM6.27764 14.2188V14.2166M1.56895 20.1508C1.17996 20.1508 0.852778 20.0149 0.587394 19.7468C0.32201 19.4786 0.1875 19.1481 0.1875 18.755C0.1875 18.362 0.32201 18.0498 0.587394 17.7817L15.2199 2.99742H0.1875V0.205866H18.5463C18.9352 0.205866 19.2624 0.34177 19.5278 0.609907C19.7932 0.878044 19.9277 1.20862 19.9277 1.60165C19.9277 1.99467 19.7932 2.30688 19.5278 2.57502L4.89534 17.3593H19.9277V20.1508H1.56895ZM0.1875 0.995583C0.1875 0.775197 0.26385 0.587861 0.412902 0.437264C0.565588 0.282994 0.747348 0.209542 0.965472 0.209542H2.16515C2.38328 0.209542 2.56869 0.286667 2.71774 0.437264C2.87043 0.591534 2.94312 0.775197 2.94312 0.995583V2.20771C2.94312 2.42809 2.86679 2.61543 2.71774 2.76603C2.56505 2.9203 2.38328 2.99375 2.16515 2.99375H0.965472C0.747348 2.99375 0.561953 2.91662 0.412902 2.76603C0.260215 2.61176 0.1875 2.42809 0.1875 2.20771V0.995583ZM68.0058 20.1875L77.8759 0.242543H79.5664C80.6679 2.47212 81.7404 4.64292 82.7837 6.7623C83.2309 7.65487 83.6926 8.58784 84.1652 9.55386C84.6378 10.5199 85.1067 11.4712 85.5757 12.4005C86.041 13.3298 86.4882 14.2261 86.9136 15.0819C87.3389 15.9377 87.7206 16.7091 88.0587 17.3959H107.799V20.1875H86.3682L81.9876 11.3353C80.9697 9.2894 79.8791 7.09288 78.7157 4.7421C78.534 5.10941 78.3413 5.5061 78.1341 5.93585C77.9523 6.30316 77.7414 6.73292 77.4979 7.22144C77.2543 7.70996 76.9962 8.23889 76.7163 8.80088L72.4628 17.3959H81.0787C81.5622 18.3877 82.0239 19.317 82.4602 20.1875H68.0058ZM88.0551 5.73383C88.0805 4.96248 88.2405 4.24256 88.5349 3.57406C88.833 2.90555 89.2329 2.3252 89.7346 1.82933C90.2363 1.33346 90.8252 0.944102 91.4978 0.661273C92.1703 0.378444 92.8865 0.238866 93.6499 0.238866H107.792V3.03043H93.6499C93.2609 3.03043 92.8974 3.10389 92.5593 3.25081C92.2212 3.39774 91.9195 3.59976 91.6577 3.85687C91.396 4.11399 91.1924 4.41519 91.0397 4.75678C90.887 5.09838 90.8143 5.46569 90.8143 5.85872V11.6071H88.0514V5.73016L88.0551 5.73383ZM92.1449 9.59059C92.1449 9.38123 92.2212 9.20125 92.3703 9.04698C92.5193 8.89271 92.7047 8.81924 92.9229 8.81924H94.1407C94.3479 8.81924 94.5261 8.89638 94.6788 9.04698C94.8315 9.20125 94.9041 9.38123 94.9041 9.59059V10.8211C94.9041 11.0415 94.8278 11.2288 94.6788 11.3794C94.5297 11.53 94.3479 11.6071 94.1407 11.6071H92.9229C92.7047 11.6071 92.5193 11.53 92.3703 11.3794C92.2176 11.2251 92.1449 11.0415 92.1449 10.8211V9.59059ZM105.051 8.81924V11.6108H92.1449V8.81924H105.051ZM46.1753 20.1692C45.9571 20.1692 45.7717 20.092 45.6227 19.9414C45.47 19.7871 45.3973 19.6035 45.3973 19.3831V18.171C45.3973 17.9506 45.4736 17.7633 45.6227 17.6127C45.7754 17.4584 45.9571 17.3849 46.1753 17.3849H47.375C47.5931 17.3849 47.7785 17.4621 47.9275 17.6127C48.0802 17.7669 48.1529 17.9506 48.1529 18.171V19.3831C48.1529 19.6035 48.0766 19.7908 47.9275 19.9414C47.7748 20.0957 47.5931 20.1692 47.375 20.1692H46.1753ZM39.0689 11.5962H26.1633V8.80463H39.0689V11.5962ZM28.1591 8.80463C28.3663 8.80463 28.5445 8.88177 28.6972 9.03236C28.8498 9.18663 28.9225 9.36662 28.9225 9.57598V10.8065C28.9225 11.0268 28.8462 11.2142 28.6972 11.3648C28.5481 11.5154 28.3663 11.5925 28.1591 11.5925H26.9412C26.7231 11.5925 26.5377 11.5154 26.3887 11.3648C26.236 11.2105 26.1633 11.0268 26.1633 10.8065V9.57598C26.1633 9.36661 26.2396 9.18663 26.3887 9.03236C26.5377 8.87809 26.7231 8.80463 26.9412 8.80463H28.1591Z" stroke="#BCEB0F" stroke-width="0.375"/>
</svg>
