<svg width="199" height="31" viewBox="0 0 199 31" fill="none" xmlns="http://www.w3.org/2000/svg">
<path d="M2.35343 30.2262C1.76995 30.2262 1.27917 30.0224 0.881091 29.6202C0.483015 29.218 0.28125 28.7221 0.28125 28.1326C0.28125 27.543 0.483015 27.0747 0.881091 26.6725L22.8298 4.49614H0.28125V0.308798H27.8194C28.4029 0.308798 28.8936 0.512656 29.2917 0.91486C29.6898 1.31707 29.8916 1.81293 29.8916 2.40247C29.8916 2.992 29.6898 3.46032 29.2917 3.86253L7.34301 26.0389H29.8916V30.2262H2.35343ZM0.28125 1.49337C0.28125 1.1628 0.395776 0.881792 0.619353 0.655896C0.848383 0.42449 1.12102 0.314313 1.44821 0.314313H3.24773C3.57491 0.314313 3.85303 0.43 4.07661 0.655896C4.30564 0.887301 4.41469 1.1628 4.41469 1.49337V3.31156C4.41469 3.64214 4.30019 3.92314 4.07661 4.14904C3.84758 4.38045 3.57491 4.49062 3.24773 4.49062H1.44821C1.12102 4.49062 0.84293 4.37494 0.619353 4.14904C0.390323 3.91763 0.28125 3.64214 0.28125 3.31156V1.49337Z" fill="white"/>
<path d="M102.009 30.2812L116.814 0.363814H119.35C121.002 3.70818 122.611 6.96438 124.176 10.1435C124.846 11.4823 125.539 12.8818 126.248 14.3308C126.957 15.7798 127.66 17.2068 128.364 18.6008C129.062 19.9947 129.732 21.3391 130.37 22.6228C131.008 23.9066 131.581 25.0636 132.088 26.0939H161.698V30.2812H129.552L122.981 17.003C121.454 13.9341 119.819 10.6393 118.074 7.11314C117.801 7.66411 117.512 8.25915 117.201 8.90378C116.928 9.45475 116.612 10.0994 116.247 10.8322C115.881 11.5649 115.494 12.3583 115.074 13.2013L108.694 26.0939H121.618C122.343 27.5815 123.036 28.9755 123.69 30.2812H102.009ZM132.083 8.60075C132.121 7.44372 132.361 6.36384 132.802 5.36108C133.25 4.35833 133.849 3.4878 134.602 2.744C135.354 2.00019 136.238 1.41615 137.247 0.99191C138.256 0.567666 139.33 0.358299 140.475 0.358299H161.687V4.54564H140.475C139.891 4.54564 139.346 4.65583 138.839 4.87622C138.332 5.0966 137.879 5.39964 137.487 5.78531C137.094 6.17099 136.789 6.62278 136.56 7.13518C136.331 7.64757 136.221 8.19854 136.221 8.78807V17.4107H132.077V8.59524L132.083 8.60075ZM138.217 14.3859C138.217 14.0718 138.332 13.8019 138.555 13.5705C138.779 13.3391 139.057 13.2289 139.384 13.2289H141.211C141.522 13.2289 141.789 13.3446 142.018 13.5705C142.247 13.8019 142.356 14.0718 142.356 14.3859V16.2316C142.356 16.5622 142.242 16.8432 142.018 17.0691C141.795 17.295 141.522 17.4107 141.211 17.4107H139.384C139.057 17.4107 138.779 17.295 138.555 17.0691C138.326 16.8377 138.217 16.5622 138.217 16.2316V14.3859ZM157.576 13.2289V17.4162H138.217V13.2289H157.576Z" fill="white"/>
<path d="M102.009 4.52369C101.409 4.52369 100.853 4.63388 100.329 4.85427C99.8057 5.07465 99.3586 5.37768 98.9659 5.76336C98.5733 6.14903 98.2679 6.60083 98.0389 7.11322C97.8099 7.62562 97.7008 8.17659 97.7008 8.76612V30.2538H94.7834L72.2348 7.47135V30.2538H68.0905V0.336347H71.0079L93.5565 23.1188V8.84877C93.5565 7.69174 93.78 6.59533 94.2217 5.554C94.6689 4.51819 95.2687 3.61459 96.0322 2.84324C96.7956 2.07189 97.6899 1.46031 98.7151 1.01402C99.7403 0.562232 100.836 0.341862 101.998 0.341862" fill="white"/>
<path d="M195.475 30.1987H192.557L164.992 0.28125H170.118L198.463 30.2648" fill="white"/>
<path d="M170.009 30.2538H164.992L190.403 0.28125L195.486 0.29228" fill="white"/>
<path d="M69.2629 30.2537C68.9357 30.2537 68.6576 30.138 68.434 29.9121C68.205 29.6807 68.0959 29.4052 68.0959 29.0747V27.2565C68.0959 26.9259 68.2104 26.6449 68.434 26.419C68.663 26.1876 68.9357 26.0774 69.2629 26.0774H71.0624C71.3896 26.0774 71.6677 26.1931 71.8913 26.419C72.1203 26.6504 72.2294 26.9259 72.2294 27.2565V29.0747C72.2294 29.4052 72.1149 29.6862 71.8913 29.9121C71.6623 30.1435 71.3896 30.2537 71.0624 30.2537H69.2629Z" fill="white"/>
<path d="M33.1156 26.072H62.7259V30.2593H33.0829V26.0056C33.0938 26.0278 33.1047 26.0499 33.1156 26.072Z" fill="white"/>
<path d="M58.6034 17.3943H39.2449V13.2069H58.6034V17.3943Z" fill="white"/>
<path d="M62.715 4.52369H41.5024C40.919 4.52369 40.3737 4.63388 39.8665 4.85427C39.3594 5.07465 38.9068 5.37768 38.5142 5.76336C38.1215 6.14903 37.8162 6.60083 37.5871 7.11322C37.3581 7.62562 37.249 8.17659 37.249 8.76612L37.26 26.072H33.1156L33.1047 8.57328L33.1102 8.57882C33.1483 7.4218 33.3883 6.34191 33.83 5.33916C34.2771 4.3364 34.877 3.46587 35.6295 2.72207C36.382 1.97827 37.2654 1.3942 38.2743 0.969957C39.2831 0.54572 40.3573 0.336347 41.5024 0.336347H62.715V4.52369Z" fill="white"/>
<path d="M42.2386 13.2069C42.5494 13.2069 42.8167 13.3227 43.0457 13.5485C43.2747 13.7799 43.3838 14.0499 43.3838 14.364V16.2097C43.3838 16.5403 43.2693 16.8213 43.0457 17.0472C42.8221 17.2731 42.5494 17.3887 42.2386 17.3887H40.4118C40.0847 17.3887 39.8066 17.2731 39.583 17.0472C39.354 16.8158 39.2449 16.5403 39.2449 16.2097V14.364C39.2449 14.0499 39.3594 13.78 39.583 13.5485C39.8066 13.3171 40.0846 13.2069 40.4118 13.2069H42.2386Z" fill="white"/>
<path d="M102.009 4.52369C101.409 4.52369 100.853 4.63388 100.329 4.85427C99.8057 5.07465 99.3586 5.37768 98.9659 5.76336C98.5733 6.14903 98.2679 6.60083 98.0389 7.11322C97.8099 7.62562 97.7008 8.17659 97.7008 8.76612V30.2538H94.7834L72.2349 7.47135V30.2538H68.0905V0.336347H71.0079L93.5565 23.1188V8.84877C93.5565 7.69174 93.78 6.59533 94.2217 5.554C94.6689 4.51819 95.2687 3.61459 96.0322 2.84324C96.7956 2.07189 97.6899 1.46031 98.7151 1.01402C99.7403 0.562232 100.836 0.341862 101.998 0.341862M195.475 30.1987H192.557L164.992 0.28125M164.992 0.28125L170.009 1.65866M164.992 0.28125H170.118L198.463 30.2648M170.009 30.2538H164.992L190.403 0.28125M190.403 0.28125L188.386 4.52369M190.403 0.28125L195.486 0.29228M33.1156 26.072H62.7259V30.2593H33.0829V26.0056C33.0938 26.0278 33.1047 26.0499 33.1156 26.072ZM33.1156 26.072H37.26L37.249 8.76612C37.249 8.17659 37.3581 7.62562 37.5871 7.11322C37.8162 6.60083 38.1215 6.14903 38.5142 5.76336C38.9068 5.37768 39.3594 5.07465 39.8665 4.85427C40.3737 4.63388 40.919 4.52369 41.5024 4.52369H62.715V0.336347H41.5024C40.3573 0.336347 39.2831 0.54572 38.2743 0.969957C37.2654 1.3942 36.382 1.97827 35.6295 2.72207C34.877 3.46587 34.2771 4.3364 33.83 5.33916C33.3883 6.34191 33.1483 7.4218 33.1102 8.57882L33.1047 8.57328L33.1156 26.072ZM9.41646 21.3281V21.3249M2.35343 30.2262C1.76995 30.2262 1.27917 30.0224 0.881091 29.6202C0.483015 29.218 0.28125 28.7221 0.28125 28.1326C0.28125 27.543 0.483015 27.0747 0.881091 26.6725L22.8298 4.49614H0.28125V0.308798H27.8194C28.4029 0.308798 28.8936 0.512656 29.2917 0.914861C29.6898 1.31707 29.8916 1.81293 29.8916 2.40247C29.8916 2.992 29.6898 3.46032 29.2917 3.86253L7.34301 26.0389H29.8916V30.2262H2.35343ZM0.28125 1.49337C0.28125 1.1628 0.395776 0.881792 0.619353 0.655896C0.848383 0.42449 1.12102 0.314313 1.44821 0.314313H3.24773C3.57491 0.314313 3.85303 0.43 4.07661 0.655896C4.30564 0.887301 4.41469 1.1628 4.41469 1.49337V3.31156C4.41469 3.64214 4.30019 3.92314 4.07661 4.14904C3.84758 4.38045 3.57491 4.49062 3.24773 4.49062H1.44821C1.12102 4.49062 0.84293 4.37494 0.619353 4.14904C0.390323 3.91763 0.28125 3.64214 0.28125 3.31156V1.49337ZM102.009 30.2813L116.814 0.363814H119.35C121.002 3.70818 122.611 6.96438 124.176 10.1435C124.846 11.4823 125.539 12.8818 126.248 14.3308C126.957 15.7798 127.66 17.2068 128.364 18.6008C129.062 19.9947 129.732 21.3391 130.37 22.6228C131.008 23.9066 131.581 25.0636 132.088 26.0939H161.698V30.2813H129.552L122.981 17.003C121.455 13.9341 119.819 10.6393 118.074 7.11314C117.801 7.66411 117.512 8.25915 117.201 8.90378C116.928 9.45475 116.612 10.0994 116.247 10.8322C115.881 11.5649 115.494 12.3583 115.074 13.2013L108.694 26.0939H121.618C122.343 27.5815 123.036 28.9755 123.69 30.2813H102.009ZM132.083 8.60075C132.121 7.44372 132.361 6.36384 132.802 5.36108C133.25 4.35833 133.849 3.4878 134.602 2.744C135.354 2.00019 136.238 1.41615 137.247 0.99191C138.256 0.567666 139.33 0.358299 140.475 0.358299H161.687V4.54564H140.475C139.891 4.54564 139.346 4.65583 138.839 4.87622C138.332 5.0966 137.879 5.39964 137.487 5.78531C137.094 6.17099 136.789 6.62278 136.56 7.13518C136.331 7.64757 136.221 8.19854 136.221 8.78807V17.4107H132.077V8.59524L132.083 8.60075ZM138.217 14.3859C138.217 14.0718 138.332 13.8019 138.555 13.5705C138.779 13.3391 139.057 13.2289 139.384 13.2289H141.211C141.522 13.2289 141.789 13.3446 142.018 13.5705C142.247 13.8019 142.356 14.0718 142.356 14.3859V16.2316C142.356 16.5622 142.242 16.8432 142.018 17.0691C141.795 17.295 141.522 17.4107 141.211 17.4107H139.384C139.057 17.4107 138.779 17.295 138.555 17.0691C138.326 16.8377 138.217 16.5622 138.217 16.2316V14.3859ZM157.576 13.2289V17.4162H138.217V13.2289H157.576ZM69.2629 30.2537C68.9357 30.2537 68.6576 30.138 68.434 29.9121C68.205 29.6807 68.0959 29.4052 68.0959 29.0747V27.2565C68.0959 26.9259 68.2104 26.6449 68.434 26.419C68.663 26.1876 68.9357 26.0774 69.2629 26.0774H71.0624C71.3896 26.0774 71.6677 26.1931 71.8913 26.419C72.1203 26.6504 72.2294 26.9259 72.2294 27.2565V29.0747C72.2294 29.4052 72.1149 29.6862 71.8913 29.9121C71.6623 30.1435 71.3896 30.2537 71.0624 30.2537H69.2629ZM58.6034 17.3943H39.2449V13.2069H58.6034V17.3943ZM42.2386 13.2069C42.5494 13.2069 42.8167 13.3227 43.0457 13.5485C43.2747 13.7799 43.3838 14.0499 43.3838 14.364V16.2097C43.3838 16.5403 43.2693 16.8213 43.0457 17.0472C42.8221 17.2731 42.5494 17.3887 42.2386 17.3887H40.4118C40.0847 17.3887 39.8066 17.2731 39.583 17.0472C39.354 16.8158 39.2449 16.5403 39.2449 16.2097V14.364C39.2449 14.0499 39.3594 13.78 39.583 13.5485C39.8066 13.3171 40.0846 13.2069 40.4118 13.2069H42.2386Z" stroke="white" stroke-width="0.5625"/>
</svg>
